<svg xmlns="http://www.w3.org/2000/svg" width="22.323" height="29.763" viewBox="0 0 22.323 29.763">
  <path id="Pin_-_alt" data-name="Pin - alt" d="M375.52,1680.241c-.115-.129-2.854-3.2-5.58-6.988a49.882,49.882,0,0,1-3.836-6.106,12.974,12.974,0,0,1-1.744-5.507,11.161,11.161,0,0,1,22.323,0,12.974,12.974,0,0,1-1.744,5.507,49.9,49.9,0,0,1-3.837,6.106c-2.724,3.788-5.465,6.86-5.58,6.988h0Zm-7.439-18.6a7.44,7.44,0,1,0,7.439-7.44A7.448,7.448,0,0,0,368.08,1661.64Zm3.72,0a3.72,3.72,0,1,1,3.72,3.72A3.721,3.721,0,0,1,371.8,1661.64Z" transform="translate(-364.36 -1650.479)" fill="#111"/>
</svg>
